<svg width="1440" height="233" viewBox="0 0 1440 233" fill="none" xmlns="http://www.w3.org/2000/svg">
<path d="M-268.057 232.96C-285.337 232.96 -300.591 229.867 -313.817 223.68C-327.044 217.494 -337.391 208.64 -344.857 197.12C-352.324 185.6 -356.057 171.734 -356.057 155.52V146.56H-314.457V155.52C-314.457 168.96 -310.297 179.094 -301.977 185.92C-293.657 192.534 -282.351 195.84 -268.057 195.84C-253.551 195.84 -242.777 192.96 -235.737 187.2C-228.484 181.44 -224.857 174.08 -224.857 165.12C-224.857 158.934 -226.671 153.92 -230.297 150.08C-233.711 146.24 -238.831 143.147 -245.657 140.8C-252.271 138.24 -260.377 135.894 -269.977 133.76L-277.337 132.16C-292.697 128.747 -305.924 124.48 -317.017 119.36C-327.897 114.027 -336.324 107.094 -342.297 98.5605C-348.057 90.0271 -350.937 78.9338 -350.937 65.2805C-350.937 51.6271 -347.737 40.0005 -341.337 30.4005C-334.724 20.5871 -325.551 13.1205 -313.817 8.00047C-301.871 2.66712 -287.897 0.000453949 -271.897 0.000453949C-255.897 0.000453949 -241.711 2.77379 -229.337 8.32046C-216.751 13.6538 -206.937 21.7605 -199.897 32.6405C-192.644 43.3071 -189.017 56.7471 -189.017 72.9605V82.5605H-230.617V72.9605C-230.617 64.4271 -232.324 57.6005 -235.737 52.4805C-238.937 47.1471 -243.631 43.3071 -249.817 40.9605C-256.004 38.4005 -263.364 37.1205 -271.897 37.1205C-284.697 37.1205 -294.191 39.5738 -300.377 44.4805C-306.351 49.1738 -309.337 55.6805 -309.337 64.0005C-309.337 69.5471 -307.951 74.2405 -305.177 78.0805C-302.191 81.9205 -297.817 85.1205 -292.057 87.6805C-286.297 90.2405 -278.937 92.4805 -269.977 94.4005L-262.617 96.0005C-246.617 99.4138 -232.751 103.787 -221.017 109.12C-209.071 114.454 -199.791 121.494 -193.177 130.24C-186.564 138.987 -183.257 150.187 -183.257 163.84C-183.257 177.494 -186.777 189.547 -193.817 200C-200.644 210.24 -210.457 218.347 -223.257 224.32C-235.844 230.08 -250.777 232.96 -268.057 232.96ZM-109.102 228.48V42.8805H-174.382V4.48045H-1.5825V42.8805H-66.8625V228.48H-109.102ZM103.16 232.96C75 232.96 52.6 225.28 35.96 209.92C19.32 194.347 11 172.16 11 143.36V89.6005C11 60.8005 19.32 38.7205 35.96 23.3605C52.6 7.78712 75 0.000453949 103.16 0.000453949C131.32 0.000453949 153.72 7.78712 170.36 23.3605C187 38.7205 195.32 60.8005 195.32 89.6005V143.36C195.32 172.16 187 194.347 170.36 209.92C153.72 225.28 131.32 232.96 103.16 232.96ZM103.16 195.2C118.947 195.2 131.213 190.614 139.96 181.44C148.707 172.267 153.08 160 153.08 144.64V88.3205C153.08 72.9605 148.707 60.6938 139.96 51.5205C131.213 42.3471 118.947 37.7605 103.16 37.7605C87.5867 37.7605 75.32 42.3471 66.36 51.5205C57.6133 60.6938 53.24 72.9605 53.24 88.3205V144.64C53.24 160 57.6133 172.267 66.36 181.44C75.32 190.614 87.5867 195.2 103.16 195.2ZM315.49 232.96C287.757 232.96 265.783 225.28 249.57 209.92C233.357 194.347 225.25 172.16 225.25 143.36V89.6005C225.25 60.8005 233.357 38.7205 249.57 23.3605C265.783 7.78712 287.757 0.000453949 315.49 0.000453949C343.01 0.000453949 364.237 7.57379 379.17 22.7205C394.317 37.6538 401.89 58.2405 401.89 84.4805V86.4005H360.29V83.2005C360.29 69.9738 356.557 59.0938 349.09 50.5605C341.837 42.0271 330.637 37.7605 315.49 37.7605C300.557 37.7605 288.823 42.3471 280.29 51.5205C271.757 60.6938 267.49 73.1738 267.49 88.9605V144C267.49 159.574 271.757 172.054 280.29 181.44C288.823 190.614 300.557 195.2 315.49 195.2C330.637 195.2 341.837 190.934 349.09 182.4C356.557 173.654 360.29 162.774 360.29 149.76V144H401.89V148.48C401.89 174.72 394.317 195.414 379.17 210.56C364.237 225.494 343.01 232.96 315.49 232.96ZM434.307 228.48V4.48045H476.548V93.4405H482.308L554.948 4.48045H609.028L515.588 114.88L612.228 228.48H556.548L482.308 137.6H476.548V228.48H434.307ZM711.87 228.48V4.48045H754.11V93.4405H759.87L832.51 4.48045H886.59L793.15 114.88L889.79 228.48H834.11L759.87 137.6H754.11V228.48H711.87ZM910.182 228.48V4.48045H1054.18V42.8805H952.423V96.3205H1045.22V134.72H952.423V190.08H1056.1V228.48H910.182ZM1085.37 228.48V4.48045H1229.37V42.8805H1127.61V96.3205H1220.41V134.72H1127.61V190.08H1231.29V228.48H1085.37ZM1260.56 228.48V4.48045H1352.72C1366.8 4.48045 1379.17 7.36045 1389.84 13.1205C1400.72 18.6671 1409.14 26.5605 1415.12 36.8005C1421.3 47.0405 1424.4 59.2005 1424.4 73.2805V77.7605C1424.4 91.6271 1421.2 103.787 1414.8 114.24C1408.61 124.48 1400.08 132.48 1389.2 138.24C1378.53 143.787 1366.37 146.56 1352.72 146.56H1302.8V228.48H1260.56ZM1302.8 108.16H1348.56C1358.58 108.16 1366.69 105.387 1372.88 99.8405C1379.06 94.2938 1382.16 86.7205 1382.16 77.1205V73.9205C1382.16 64.3205 1379.06 56.7471 1372.88 51.2005C1366.69 45.6538 1358.58 42.8805 1348.56 42.8805H1302.8V108.16ZM1451.68 228.48V4.48045H1595.68V42.8805H1493.92V96.3205H1586.72V134.72H1493.92V190.08H1597.6V228.48H1451.68ZM1626.87 228.48V4.48045H1724.15C1738.23 4.48045 1750.5 6.93379 1760.95 11.8405C1771.4 16.7471 1779.51 23.6805 1785.27 32.6405C1791.03 41.6005 1793.91 52.1605 1793.91 64.3205V68.1605C1793.91 81.6005 1790.71 92.4805 1784.31 100.8C1777.91 109.12 1770.02 115.2 1760.63 119.04V124.8C1769.16 125.227 1775.78 128.214 1780.47 133.76C1785.16 139.094 1787.51 146.24 1787.51 155.2V228.48H1745.27V161.28C1745.27 156.16 1743.88 152 1741.11 148.8C1738.55 145.6 1734.18 144 1727.99 144H1669.11V228.48H1626.87ZM1669.11 105.6H1719.67C1729.7 105.6 1737.48 102.934 1743.03 97.6005C1748.79 92.0538 1751.67 84.8005 1751.67 75.8405V72.6405C1751.67 63.6805 1748.9 56.5338 1743.35 51.2005C1737.8 45.6538 1729.91 42.8805 1719.67 42.8805H1669.11V105.6Z" fill="white" fill-opacity="0.0196078"/>
</svg>
